<svg aria-hidden="true" style="position: absolute; width: 0; height: 0; overflow: hidden;" version="1.1" xmlns="http://www.w3.org/2000/svg" xmlns:xlink="http://www.w3.org/1999/xlink">
<defs>
<symbol id="icon-classic-computer" viewBox="0 0 20 20">
<title>classic-computer</title>
<path d="M16 0h-12c-1.1 0-2 0.899-2 2v15c0 0.552 0.447 1 1 1v2h14v-2c0.553 0 1-0.448 1-1v-15c0-1.101-0.899-2-2-2zM14 15h-4v-1h4v1zM15 11h-10v-8h10v8z"></path>
</symbol>
<symbol id="icon-bookmark" viewBox="0 0 20 20">
<title>bookmark</title>
<path d="M14 2v17l-4-4-4 4v-17c0-0.553 0.585-1.020 1-1h6c0.689-0.020 1 0.447 1 1z"></path>
</symbol>
<symbol id="icon-bookmarks" viewBox="0 0 20 20">
<title>bookmarks</title>
<path d="M15 0h-4c-0.553 0-1 0.447-1 1l0.023 0.222c1.102 0 2 0.897 2 2v11.359l0.977-1.181 3 3.6v-16c0-0.553-0.447-1-1-1zM9.023 3h-4.023c-0.553 0-1 0.447-1 1v16l3-3.6 3 3.6v-16c0-0.553-0.424-1-0.977-1z"></path>
</symbol>
<symbol id="icon-chevron-right" viewBox="0 0 20 20">
<title>chevron-right</title>
<path d="M9.163 4.516c0.418 0.408 4.502 4.695 4.502 4.695 0.223 0.219 0.335 0.504 0.335 0.789s-0.112 0.57-0.335 0.787c0 0-4.084 4.289-4.502 4.695-0.418 0.408-1.17 0.436-1.615 0-0.446-0.434-0.481-1.041 0-1.574l3.747-3.908-3.747-3.908c-0.481-0.533-0.446-1.141 0-1.576s1.197-0.409 1.615 0z"></path>
</symbol>
<symbol id="icon-cloud" viewBox="0 0 20 20">
<title>cloud</title>
<path d="M20 11.32c0 2.584-2.144 4.68-4.787 4.68h-11.596c-1.998 0-3.617-1.584-3.617-3.537 0-1.951 1.619-3.535 3.617-3.535 0.146 0 0.288 0.012 0.429 0.027-0.037-0.246-0.057-0.498-0.057-0.756 0-2.871 2.381-5.199 5.32-5.199 2.407 0 4.439 1.562 5.096 3.707 0.263-0.043 0.532-0.066 0.809-0.066 2.642 0 4.786 2.093 4.786 4.679z"></path>
</symbol>
<symbol id="icon-controller-play" viewBox="0 0 20 20">
<title>controller-play</title>
<path d="M15 10.001c0 0.299-0.305 0.514-0.305 0.514l-8.561 5.303c-0.624 0.409-1.134 0.106-1.134-0.669v-10.297c0-0.777 0.51-1.078 1.135-0.67l8.561 5.305c-0.001 0 0.304 0.215 0.304 0.514z"></path>
</symbol>
<symbol id="icon-emoji-flirt" viewBox="0 0 20 20">
<title>emoji-flirt</title>
<path d="M7.5 9.75c0.829 0 1.5-0.783 1.5-1.75s-0.671-1.75-1.5-1.75-1.5 0.784-1.5 1.75 0.672 1.75 1.5 1.75zM10 0.4c-5.302 0-9.6 4.298-9.6 9.6s4.298 9.6 9.6 9.6c5.301 0 9.6-4.298 9.6-9.601 0-5.301-4.299-9.599-9.6-9.599zM10 17.599c-4.197 0-7.6-3.402-7.6-7.6 0-4.197 3.402-7.6 7.6-7.6s7.6 3.403 7.6 7.601c0 4.197-3.403 7.599-7.6 7.599zM14.341 11.336c-0.363-0.187-0.815-0.043-1.008 0.32-0.034 0.065-0.869 1.593-3.332 1.593-2.451 0-3.291-1.513-3.333-1.592-0.188-0.365-0.632-0.514-1.004-0.329-0.37 0.185-0.521 0.636-0.335 1.007 0.050 0.099 1.248 2.414 4.672 2.414 3.425 0 4.621-2.316 4.67-2.415 0.184-0.367 0.036-0.81-0.33-0.998zM11.25 8.75h2.5c0.414 0 0.75-0.336 0.75-0.75s-0.336-0.75-0.75-0.75h-2.5c-0.414 0-0.75 0.336-0.75 0.75s0.336 0.75 0.75 0.75z"></path>
</symbol>
<symbol id="icon-flow-cascade" viewBox="0 0 20 20">
<title>flow-cascade</title>
<path d="M14 14.6c-0.967 0-1.796 0.576-2.176 1.4h-3.324c-0.828 0-1.5-0.672-1.5-1.5v-3.85c0.456 0.218 0.961 0.35 1.5 0.35h3.324c0.38 0.824 1.208 1.4 2.176 1.4 1.326 0 2.4-1.075 2.4-2.4s-1.074-2.4-2.4-2.4c-0.967 0-1.796 0.576-2.176 1.4h-3.324c-0.828 0-1.5-0.672-1.5-1.5v-2.324c0.825-0.38 1.4-1.209 1.4-2.176 0-1.326-1.074-2.4-2.4-2.4s-2.4 1.074-2.4 2.4c0 0.967 0.576 1.796 1.4 2.176v9.324c0 1.933 1.567 3.5 3.5 3.5h3.324c0.38 0.824 1.208 1.4 2.176 1.4 1.326 0 2.4-1.075 2.4-2.4s-1.074-2.4-2.4-2.4zM14 8.615c0.764 0 1.384 0.619 1.384 1.385 0 0.764-0.62 1.385-1.384 1.385-0.766 0-1.385-0.621-1.385-1.385 0.001-0.766 0.62-1.385 1.385-1.385zM6 1.615c0.764 0 1.384 0.619 1.384 1.385 0 0.764-0.62 1.385-1.384 1.385s-1.384-0.621-1.384-1.385c0-0.766 0.619-1.385 1.384-1.385zM14 18.385c-0.766 0-1.385-0.621-1.385-1.385 0-0.766 0.619-1.385 1.385-1.385 0.764 0 1.384 0.619 1.384 1.385 0 0.764-0.62 1.385-1.384 1.385z"></path>
</symbol>
<symbol id="icon-sound" viewBox="0 0 20 20">
<title>sound</title>
<path d="M5.312 4.566c-1.122 1.119-6.027 8.115-1.789 12.352 4.236 4.238 11.23-0.668 12.354-1.789 1.121-1.119-0.335-4.395-3.252-7.312-2.919-2.919-6.191-4.376-7.313-3.251zM14.576 14.156c-0.332 0.328-2.895-0.457-5.364-2.928-2.467-2.469-3.256-5.033-2.924-5.363 0.328-0.332 2.894 0.457 5.36 2.926 2.471 2.467 3.258 5.033 2.928 5.365zM15.434 5.982l1.904-1.906c0.391-0.391 0.391-1.023 0-1.414s-1.023-0.391-1.414 0l-1.904 1.906c-0.391 0.391-0.391 1.024 0 1.414s1.023 0.39 1.414 0zM11.124 3.8c0.483 0.268 1.091 0.095 1.36-0.388l1.087-1.926c0.268-0.483 0.095-1.091-0.388-1.36-0.482-0.269-1.091-0.095-1.36 0.388l-1.087 1.926c-0.268 0.484-0.094 1.093 0.388 1.36zM19.872 6.816c-0.267-0.483-0.877-0.657-1.36-0.388l-1.94 1.061c-0.483 0.268-0.657 0.878-0.388 1.36 0.268 0.483 0.877 0.657 1.36 0.388l1.94-1.061c0.483-0.269 0.657-0.877 0.388-1.36z"></path>
</symbol>
<symbol id="icon-air" viewBox="0 0 20 20">
<title>air</title>
<path d="M2.643 6.357c1.747-1.5 3.127-2.686 6.872-0.57 1.799 1.016 3.25 1.4 4.457 1.398 2.115 0 3.486-1.176 4.671-2.193 0.423-0.363 0.477-1.008 0.122-1.439-0.357-0.432-0.987-0.488-1.41-0.125-1.746 1.502-3.127 2.688-6.872 0.57-4.948-2.793-7.266-0.803-9.128 0.797-0.422 0.363-0.476 1.006-0.121 1.439 0.356 0.43 0.986 0.487 1.409 0.123zM17.355 8.535c-1.746 1.5-3.127 2.688-6.872 0.57-4.948-2.795-7.266-0.804-9.128 0.795-0.422 0.363-0.477 1.008-0.121 1.439s0.986 0.488 1.409 0.125c1.747-1.501 3.127-2.687 6.872-0.572 1.799 1.018 3.25 1.4 4.457 1.4 2.115 0 3.486-1.176 4.671-2.195 0.423-0.363 0.477-1.008 0.122-1.438-0.356-0.433-0.987-0.487-1.41-0.124zM17.355 13.641c-1.746 1.502-3.127 2.688-6.872 0.572-4.948-2.795-7.266-0.805-9.128 0.795-0.422 0.363-0.477 1.008-0.121 1.439s0.986 0.486 1.409 0.123c1.747-1.5 3.127-2.685 6.872-0.57 1.799 1.016 3.25 1.4 4.457 1.4 2.115 0 3.486-1.178 4.671-2.195 0.423-0.363 0.477-1.008 0.122-1.439s-0.987-0.487-1.41-0.125z"></path>
</symbol>
<symbol id="icon-awareness-ribbon" viewBox="0 0 20 20">
<title>awareness-ribbon</title>
<path d="M16.574 16.338c-0.757-1.051-2.851-3.824-4.57-6.106 0.696-0.999 1.251-1.815 1.505-2.242 1.545-2.594 0.874-4.26 0.022-5.67-0.854-1.411-0.989-2.226-3.531-2.226-2.543 0-2.678 0.815-3.531 2.227-0.854 1.41-1.524 3.076 0.021 5.67 0.254 0.426 0.809 1.243 1.506 2.242-1.72 2.281-3.814 5.055-4.571 6.106-0.176 0.244-0.16 0.664 0.009 1.082 0.13 0.322 0.63 1.762 0.752 2.064 0.156 0.389 0.664 0.67 1.082 0.092 0.241-0.334 2.582-3.525 4.732-6.522 2.149 2.996 4.491 6.188 4.732 6.522 0.417 0.578 0.926 0.297 1.082-0.092 0.122-0.303 0.622-1.742 0.752-2.064 0.167-0.419 0.184-0.839 0.008-1.083zM9.634 7.063c-1.068-1.484-1.832-3.211-1.832-3.211s0.42-0.758 2.198-0.758c1.778 0 2.198 0.758 2.198 0.758s-0.766 1.727-1.833 3.211c-0.088 0.121-0.218 0.297-0.365 0.497-0.149-0.2-0.279-0.376-0.366-0.497z"></path>
</symbol>
<symbol id="icon-chat" viewBox="0 0 20 20">
<title>chat</title>
<path d="M5.8 12.2v-6.2h-3.8c-1.1 0-2 0.9-2 2v6c0 1.1 0.9 2 2 2h1v3l3-3h5c1.1 0 2-0.9 2-2v-1.82c-0.064 0.014-0.132 0.021-0.2 0.021l-7-0.001zM18 1h-9c-1.1 0-2 0.9-2 2v8h7l3 3v-3h1c1.1 0 2-0.899 2-2v-6c0-1.1-0.9-2-2-2z"></path>
</symbol>
<symbol id="icon-emoji-happy" viewBox="0 0 20 20">
<title>emoji-happy</title>
<path d="M10 0.4c-5.302 0-9.6 4.298-9.6 9.6s4.298 9.6 9.6 9.6c5.301 0 9.6-4.298 9.6-9.601 0-5.301-4.299-9.599-9.6-9.599zM10 17.599c-4.197 0-7.6-3.402-7.6-7.6s3.402-7.599 7.6-7.599c4.197 0 7.601 3.402 7.601 7.6s-3.404 7.599-7.601 7.599zM7.501 9.75c0.828 0 1.499-0.783 1.499-1.75s-0.672-1.75-1.5-1.75-1.5 0.783-1.5 1.75 0.672 1.75 1.501 1.75zM12.5 9.75c0.829 0 1.5-0.783 1.5-1.75s-0.672-1.75-1.5-1.75-1.5 0.784-1.5 1.75 0.672 1.75 1.5 1.75zM14.341 11.336c-0.363-0.186-0.815-0.043-1.008 0.32-0.034 0.066-0.869 1.593-3.332 1.593-2.451 0-3.291-1.513-3.333-1.592-0.188-0.365-0.632-0.514-1.004-0.329-0.37 0.186-0.52 0.636-0.335 1.007 0.050 0.099 1.248 2.414 4.672 2.414 3.425 0 4.621-2.316 4.67-2.415 0.184-0.367 0.036-0.81-0.33-0.998z"></path>
</symbol>
<symbol id="icon-feather" viewBox="0 0 20 20">
<title>feather</title>
<path d="M4.254 19.567c0.307-0.982 0.77-2.364 1.391-4.362 2.707-0.429 3.827 0.341 5.546-2.729-1.395 0.427-3.077-0.792-2.987-1.321s3.913 0.381 6.416-3.173c-3.155 0.696-4.164-0.836-3.757-1.067 0.939-0.534 3.726-0.222 5.212-1.669 0.766-0.745 1.125-2.556 0.813-3.202-0.374-0.781-2.656-1.946-3.914-1.836s-3.231 4.79-3.817 4.754c-0.584-0.037-0.703-2.098 0.319-4.013-1.077 0.477-3.051 1.959-3.67 3.226-1.153 2.357 0.108 7.766-0.296 7.958s-1.766-2.481-2.172-3.694c-0.555 1.859-0.568 3.721 1.053 6.194-0.611 1.623-0.945 3.491-0.996 4.441-0.024 0.759 0.724 0.922 0.859 0.493z"></path>
</symbol>
<symbol id="icon-home" viewBox="0 0 20 20">
<title>home</title>
<path d="M18.672 11h-1.672v6c0 0.445-0.194 1-1 1h-4v-6h-4v6h-4c-0.806 0-1-0.555-1-1v-6h-1.672c-0.598 0-0.47-0.324-0.060-0.748l8.024-8.032c0.195-0.202 0.451-0.302 0.708-0.312 0.257 0.010 0.513 0.109 0.708 0.312l8.023 8.031c0.411 0.425 0.539 0.749-0.059 0.749z"></path>
</symbol>
<symbol id="icon-hour-glass" viewBox="0 0 20 20">
<title>hour-glass</title>
<path d="M15.6 4.576c0-2.139 0-2.348 0-2.348 0-0.789-2.508-2.228-5.6-2.228-3.093 0-5.6 1.439-5.6 2.228 0 0 0 0.209 0 2.348 0 2.141 3.877 3.908 3.877 5.424 0 1.514-3.877 3.281-3.877 5.422s0 2.35 0 2.35c0 0.788 2.507 2.228 5.6 2.228 3.092 0 5.6-1.44 5.6-2.229 0 0 0-0.209 0-2.35s-3.877-3.908-3.877-5.422c0-1.515 3.877-3.282 3.877-5.423zM5.941 2.328c0.696-0.439 2-1.082 4.114-1.082s4.006 1.082 4.006 1.082c0.142 0.086 0.698 0.383 0.317 0.609-0.838 0.497-2.478 1.020-4.378 1.020s-3.484-0.576-4.324-1.074c-0.381-0.225 0.265-0.555 0.265-0.555zM10.501 10c0 1.193 0.996 1.961 2.051 2.986 0.771 0.748 1.826 1.773 1.826 2.435v1.328c-0.97-0.483-3.872-0.955-3.872-2.504 0-0.783-1.013-0.783-1.013 0 0 1.549-2.902 2.021-3.872 2.504v-1.328c0-0.662 1.056-1.688 1.826-2.435 1.055-1.025 2.051-1.793 2.051-2.986s-0.996-1.961-2.051-2.986c-0.771-0.75-1.826-1.775-1.826-2.438l-0.046-0.998c1.026 0.553 2.652 1.078 4.425 1.078 1.772 0 3.406-0.525 4.433-1.078l-0.055 0.998c0 0.662-1.056 1.688-1.826 2.438-1.054 1.025-2.051 1.793-2.051 2.986z"></path>
</symbol>
<symbol id="icon-line-graph" viewBox="0 0 20 20">
<title>line-graph</title>
<path d="M0.69 11.331l1.363 0.338 1.026-1.611-1.95-0.482c-0.488-0.121-0.981 0.174-1.102 0.66-0.121 0.483 0.175 0.973 0.663 1.095zM18.481 11.592l-4.463 4.016-5.247-4.061c-0.1-0.076-0.215-0.133-0.338-0.162l-0.698-0.174-1.027 1.611 1.1 0.273 5.697 4.408c0.166 0.127 0.362 0.189 0.559 0.189 0.219 0 0.438-0.078 0.609-0.232l5.028-4.527c0.372-0.334 0.401-0.906 0.064-1.277s-0.911-0.4-1.284-0.064zM8.684 7.18l4.887 3.129c0.413 0.264 0.961 0.154 1.24-0.246l5.027-7.242c0.286-0.412 0.183-0.977-0.231-1.26-0.414-0.285-0.979-0.182-1.265 0.23l-4.528 6.521-4.916-3.147c-0.204-0.131-0.451-0.174-0.688-0.123-0.236 0.053-0.442 0.197-0.571 0.4l-7.497 11.767c-0.27 0.422-0.144 0.983 0.28 1.25 0.15 0.096 0.319 0.141 0.486 0.141 0.301 0 0.596-0.149 0.768-0.42l7.008-11z"></path>
</symbol>
<symbol id="icon-link" viewBox="0 0 20 20">
<title>link</title>
<path d="M7.859 14.691l-0.81 0.805c-0.701 0.695-1.843 0.695-2.545 0-0.336-0.334-0.521-0.779-0.521-1.252s0.186-0.916 0.521-1.252l2.98-2.955c0.617-0.613 1.779-1.515 2.626-0.675 0.389 0.386 1.016 0.384 1.403-0.005 0.385-0.389 0.383-1.017-0.006-1.402-1.438-1.428-3.566-1.164-5.419 0.675l-2.98 2.956c-0.715 0.709-1.108 1.654-1.108 2.658 0 1.006 0.394 1.949 1.108 2.658 0.736 0.73 1.702 1.096 2.669 1.096s1.934-0.365 2.669-1.096l0.811-0.805c0.389-0.385 0.391-1.012 0.005-1.4s-1.014-0.39-1.403-0.006zM16.891 3.207c-1.547-1.534-3.709-1.617-5.139-0.197l-1.009 1.002c-0.389 0.386-0.392 1.013-0.006 1.401 0.386 0.389 1.013 0.391 1.402 0.005l1.010-1.001c0.74-0.736 1.711-0.431 2.346 0.197 0.336 0.335 0.522 0.779 0.522 1.252s-0.186 0.917-0.522 1.251l-3.18 3.154c-1.454 1.441-2.136 0.766-2.427 0.477-0.389-0.386-1.016-0.383-1.401 0.005s-0.384 1.017 0.005 1.401c0.668 0.662 1.43 0.99 2.228 0.99 0.977 0 2.010-0.492 2.993-1.467l3.18-3.153c0.712-0.71 1.107-1.654 1.107-2.658s-0.395-1.949-1.109-2.659z"></path>
</symbol>
<symbol id="icon-location-pin" viewBox="0 0 20 20">
<title>location-pin</title>
<path d="M10 2.009c-2.762 0-5 2.229-5 4.99 0 4.774 5 11 5 11s5-6.227 5-11c0-2.76-2.238-4.99-5-4.99zM10 9.76c-1.492 0-2.7-1.209-2.7-2.7s1.208-2.7 2.7-2.7c1.49 0 2.699 1.209 2.699 2.7s-1.209 2.7-2.699 2.7z"></path>
</symbol>
<symbol id="icon-magnifying-glass" viewBox="0 0 20 20">
<title>magnifying-glass</title>
<path d="M17.545 15.467l-3.779-3.779c0.57-0.935 0.898-2.035 0.898-3.21 0-3.417-2.961-6.377-6.378-6.377s-6.186 2.769-6.186 6.186c0 3.416 2.961 6.377 6.377 6.377 1.137 0 2.2-0.309 3.115-0.844l3.799 3.801c0.372 0.371 0.975 0.371 1.346 0l0.943-0.943c0.371-0.371 0.236-0.84-0.135-1.211zM4.004 8.287c0-2.366 1.917-4.283 4.282-4.283s4.474 2.107 4.474 4.474c0 2.365-1.918 4.283-4.283 4.283s-4.473-2.109-4.473-4.474z"></path>
</symbol>
<symbol id="icon-man" viewBox="0 0 20 20">
<title>man</title>
<path d="M10 4c1.104 0 2-0.896 2-2s-0.896-2-2-2-2 0.895-2 2c0 1.104 0.896 2 2 2zM15.978 11.583c-0.385-1.775-1.058-4.688-2.042-5.894-0.957-1.173-2.885-1.222-3.936-1.222v0c-1.051 0-2.979 0.049-3.936 1.222-0.984 1.206-1.657 4.119-2.042 5.894-0.213 0.983 1.154 1.344 1.511 0.355 0.531-1.473 0.941-2.71 1.839-3.736 0.472 2.907-1.27 7.966-1.372 10.798 0 0.552 0.448 1 1 1 0.426 0 0.79-0.266 0.934-0.642 0.457-1.587 2.066-6.003 2.066-6.003v0 0c0 0 1.609 4.416 2.066 6.003 0.144 0.376 0.508 0.642 0.934 0.642 0.552 0 1-0.448 1-1-0.102-2.832-1.844-7.891-1.372-10.797 0.898 1.026 1.308 2.263 1.839 3.736 0.356 0.988 1.724 0.627 1.511-0.356z"></path>
</symbol>
<symbol id="icon-message" viewBox="0 0 20 20">
<title>message</title>
<path d="M18 6v7c0 1.1-0.9 2-2 2h-4v3l-4-3h-4c-1.101 0-2-0.9-2-2v-7c0-1.1 0.899-2 2-2h12c1.1 0 2 0.9 2 2z"></path>
</symbol>
<symbol id="icon-moon" viewBox="0 0 20 20">
<title>moon</title>
<path d="M13.719 1.8c0.686 0.385 1.332 0.867 1.916 1.449 3.42 3.422 3.42 8.966 0 12.386s-8.965 3.42-12.386 0c-0.583-0.584-1.065-1.231-1.449-1.916 3.335 1.867 7.633 1.387 10.469-1.449s3.318-7.134 1.45-10.47z"></path>
</symbol>
<symbol id="icon-signal" viewBox="0 0 20 20">
<title>signal</title>
<path d="M10 14c-1.094 0-1.981 0.894-1.981 2 0 1.104 0.887 2 1.981 2s1.98-0.896 1.98-2c0-1.105-0.886-2-1.98-2zM5.8 11.758l1.4 1.414c1.546-1.562 4.054-1.562 5.601 0l1.399-1.414c-2.319-2.343-6.081-2.343-8.4 0zM3 8.928l1.4 1.414c3.092-3.123 8.106-3.123 11.199 0l1.401-1.414c-3.865-3.904-10.135-3.904-14 0zM0.199 6.1l1.4 1.414c4.639-4.686 12.161-4.686 16.801 0l1.4-1.414c-5.412-5.467-14.188-5.467-19.601 0z"></path>
</symbol>
<symbol id="icon-star" viewBox="0 0 20 20">
<title>star</title>
<path d="M10 1.3l2.388 6.722h6.412l-5.232 3.948 1.871 6.928-5.439-4.154-5.438 4.154 1.87-6.928-5.233-3.948h6.412l2.389-6.722z"></path>
</symbol>
<symbol id="icon-stopwatch" viewBox="0 0 20 20">
<title>stopwatch</title>
<path d="M7.376 6.745c-0.447 0.275 1.197 4.242 1.598 4.888 0.35 0.569 1.093 0.742 1.658 0.394 0.568-0.352 0.745-1.094 0.395-1.66-0.397-0.648-3.205-3.898-3.651-3.622zM7.041 2.402c0.928-0.323 1.922-0.502 2.959-0.502s2.031 0.179 2.959 0.502c0.329 0.114 0.765-0.115 0.572-0.611-0.141-0.36-0.277-0.712-0.332-0.855-0.131-0.339-0.6-0.619-0.804-0.665-0.772-0.174-1.572-0.271-2.395-0.271s-1.623 0.097-2.396 0.271c-0.204 0.046-0.672 0.326-0.803 0.665-0.055 0.143-0.192 0.495-0.332 0.855-0.193 0.496 0.243 0.726 0.572 0.611zM19.098 3.186c-0.192-0.23-0.396-0.455-0.613-0.672-0.216-0.217-0.441-0.42-0.67-0.613-0.153-0.129-0.603-0.234-0.888 0.051s-1.648 1.647-1.648 1.647c0.402 0.288 0.793 0.605 1.155 0.966s0.677 0.752 0.966 1.155c0 0 1.363-1.362 1.647-1.647 0.286-0.286 0.181-0.735 0.051-0.887zM10 2.9c-4.475 0-8.101 3.626-8.101 8.1s3.626 8.101 8.101 8.101c4.473 0 8.1-3.626 8.1-8.101 0-4.473-3.627-8.1-8.1-8.1zM10 17.101c-3.368 0-6.1-2.731-6.1-6.1s2.731-6.1 6.1-6.1c3.369 0 6.101 2.731 6.101 6.1s-2.732 6.1-6.101 6.1z"></path>
</symbol>
<symbol id="icon-thumbs-up" viewBox="0 0 20 20">
<title>thumbs-up</title>
<path d="M13.648 7.362c-0.133-0.355 3.539-3.634 1.398-6.291-0.501-0.621-2.201 2.975-4.615 4.603-1.332 0.898-4.431 2.81-4.431 3.867v6.842c0 1.271 4.914 2.617 8.648 2.617 1.369 0 3.352-8.576 3.352-9.938 0-1.368-4.221-1.344-4.352-1.7zM5 7.457c-0.658 0-3 0.4-3 3.123v4.848c0 2.721 2.342 3.021 3 3.021 0.657 0-1-0.572-1-2.26v-6.373c0-1.768 1.657-2.359 1-2.359z"></path>
</symbol>
<symbol id="icon-traffic-cone" viewBox="0 0 20 20">
<title>traffic-cone</title>
<path d="M10 12.078c2.39 0 4.392-0.812 4.513-1.873-0.356-0.996-0.744-2.084-1.125-3.152-0.264 0.761-1.725 1.301-3.388 1.301s-3.124-0.54-3.388-1.301c-0.381 1.068-0.769 2.156-1.124 3.152 0.121 1.061 2.122 1.873 4.512 1.873zM10 5.373c1.124 0 2.167-0.348 2.473-0.889-0.421-1.182-0.782-2.197-1.011-2.836-0.152-0.427-0.841-0.648-1.462-0.648s-1.31 0.221-1.462 0.648c-0.228 0.639-0.59 1.654-1.011 2.836 0.306 0.541 1.35 0.889 2.473 0.889zM18.78 13.066l-3.755-1.514 0.433 1.207c-0.022 1.279-2.504 2.299-5.458 2.299s-5.437-1.019-5.458-2.299l0.433-1.207-3.755 1.514c-1.053 0.424-1.098 1.209-0.098 1.744l7.062 3.787c0.998 0.535 2.633 0.535 3.632 0l7.063-3.787c0.999-0.535 0.954-1.32-0.099-1.744z"></path>
</symbol>
<symbol id="icon-trophy" viewBox="0 0 20 20">
<title>trophy</title>
<path d="M11.18 14.356c0-1.451 1.1-2.254 2.894-3.442 2.194-1.456 4.926-3.265 4.926-7.56 0-0.387-0.317-0.699-0.709-0.699h-3.43c-0.484-0.896-1.929-1.855-4.861-1.855-2.934 0-4.377 0.959-4.862 1.855h-3.431c-0.391 0-0.707 0.313-0.707 0.699 0 4.295 2.73 6.104 4.926 7.559 1.794 1.188 2.894 1.991 2.894 3.442v1.311c-1.884 0.209-3.269 0.906-3.269 1.736 0 0.994 1.992 1.799 4.449 1.799s4.449-0.805 4.449-1.799c0-0.83-1.385-1.527-3.269-1.736v-1.31zM13.957 9.3c0.566-1.199 1.016-2.826 1.088-5.246h2.51c-0.24 2.701-1.862 4.064-3.598 5.246zM10 2.026c2.732-0.002 3.799 1.115 3.798 1.529 0 0.418-1.066 1.533-3.798 1.535-2.732-0.001-3.799-1.116-3.799-1.534-0.001-0.414 1.067-1.532 3.799-1.53zM2.445 4.054h2.509c0.073 2.42 0.521 4.047 1.089 5.246-1.736-1.182-3.359-2.545-3.598-5.246z"></path>
</symbol>
<symbol id="icon-typing" viewBox="0 0 20 20">
<title>typing</title>
<path d="M16 4h-12c-1.101 0-2 0.9-2 2v7c0 1.1 0.899 2 2 2h4l4 3v-3h4c1.1 0 2-0.9 2-2v-7c0-1.1-0.9-2-2-2zM6 10.6c-0.607 0-1.1-0.492-1.1-1.1s0.492-1.1 1.1-1.1 1.1 0.492 1.1 1.1c0 0.607-0.493 1.1-1.1 1.1zM10 10.6c-0.607 0-1.1-0.492-1.1-1.1s0.492-1.1 1.1-1.1 1.1 0.492 1.1 1.1c0 0.607-0.493 1.1-1.1 1.1zM14 10.6c-0.607 0-1.1-0.492-1.1-1.1s0.492-1.1 1.1-1.1 1.1 0.492 1.1 1.1c0 0.607-0.493 1.1-1.1 1.1z"></path>
</symbol>
<symbol id="icon-users" viewBox="0 0 20 20">
<title>users</title>
<path d="M15.989 19.129c0-2.246-2.187-3.389-4.317-4.307-2.123-0.914-2.801-1.684-2.801-3.334 0-0.989 0.648-0.667 0.932-2.481 0.12-0.752 0.692-0.012 0.802-1.729 0-0.684-0.313-0.854-0.313-0.854s0.159-1.013 0.221-1.793c0.064-0.817-0.398-2.56-2.301-3.095-0.332-0.341-0.557-0.882 0.467-1.424-2.24-0.104-2.761 1.068-3.954 1.93-1.015 0.756-1.289 1.953-1.24 2.59 0.065 0.78 0.223 1.793 0.223 1.793s-0.314 0.17-0.314 0.854c0.11 1.718 0.684 0.977 0.803 1.729 0.284 1.814 0.933 1.492 0.933 2.481 0 1.65-0.212 2.21-2.336 3.124-2.131 0.917-2.794 2.387-2.783 4.516 0.003 0.637-0.011 0.871-0.011 0.871h16c0 0-0.011-0.234-0.011-0.871zM18.528 13.365c-1.135-0.457-1.605-1.002-1.605-2.066 0-0.641 0.418-0.432 0.602-1.603 0.077-0.484 0.447-0.008 0.518-1.115 0-0.441-0.202-0.551-0.202-0.551s0.103-0.656 0.143-1.159c0.050-0.627-0.364-2.247-2.268-2.247s-2.318 1.62-2.269 2.247c0.042 0.502 0.144 1.159 0.144 1.159s-0.202 0.109-0.202 0.551c0.071 1.107 0.441 0.631 0.518 1.115 0.184 1.172 0.602 0.963 0.602 1.603 0 1.064-0.438 1.562-1.809 2.152-0.069 0.029-0.12 0.068-0.183 0.102 1.64 0.712 4.226 1.941 4.838 4.447h2.645c0 0 0-1.906 0-2.318 0-1-0.273-1.834-1.472-2.317z"></path>
</symbol>
<symbol id="icon-swarm" viewBox="0 0 20 20">
<title>swarm</title>
<path d="M10.286 18.821c-1.429-0.232-2.733-0.607-3.677-0.923-0.046-0.015-0.781-0.282-1.007-0.37-0.278-0.107-0.423-0.431-0.317-0.71 0.086-0.225 0.379-0.949 0.399-0.994 0.4-0.92 1-2.153 1.795-3.379 0.029 1.203 0.297 2.399 0.791 3.506 0.48 1.077 1.169 2.056 2.016 2.87zM10.173 7.027c-2.791-5.689-8.99-5.486-9.968-2.943-0.751 1.952 2.535 6.602 10.097 3.244 0.002-0.001 0.002-0.001 0.004-0.002-0.026-0.047-0.114-0.247-0.133-0.299zM11.56 6.805c0.001 0 0.002-0.001 0.002-0.001 4.271-1.897 3.674-5.191 2.569-5.614-1.487-0.569-4.19 1.624-2.647 5.447 0.015 0.027 0.066 0.14 0.076 0.168zM19.413 10.97c-0.646-1.45-1.833-2.489-3.213-2.984-0.139-0.050-0.281-0.073-0.423-0.073-0.717 0-1.407 0.595-1.472 1.338-0.109 1.239 0.137 2.501 0.68 3.718 0.535 1.199 1.294 2.213 2.27 2.957 0.254 0.194 0.565 0.285 0.875 0.285 0.559 0 1.117-0.296 1.339-0.826 0.571-1.362 0.597-2.953-0.056-4.415zM16.172 17.339c-1.195-0.912-2.142-2.139-2.815-3.646-0.682-1.529-0.961-3.075-0.827-4.596 0.037-0.423 0.161-0.831 0.36-1.204-0.035 0.009-0.111 0.027-0.114 0.028-0.628 0.157-1.237 0.429-1.778 0.784-0.784 0.514-1.475 1.277-1.772 2.177-0.080 0.243-0.141 0.51-0.161 0.765-0.095 1.218 0.103 2.476 0.636 3.67 0.516 1.155 1.285 2.118 2.213 2.853 0.566 0.447 1.586 0.73 2.42 0.73 0.783 0 1.556-0.233 2.25-0.585 0.217-0.11 0.695-0.408 0.726-0.429-0.415-0.106-0.804-0.292-1.138-0.547z"></path>
</symbol>
<symbol id="icon-bell" viewBox="0 0 32 32">
<title>bell</title>
<path d="M32.047 25c0-9-8-7-8-14 0-0.58-0.056-1.076-0.158-1.498-0.526-3.532-2.88-6.366-5.93-7.23 0.027-0.123 0.041-0.251 0.041-0.382 0-1.040-0.9-1.891-2-1.891s-2 0.851-2 1.891c0 0.131 0.014 0.258 0.041 0.382-3.421 0.969-5.966 4.416-6.039 8.545-0.001 0.060-0.002 0.121-0.002 0.183 0 7-8 5-8 14 0 2.382 5.331 4.375 12.468 4.878 0.673 1.263 2.002 2.122 3.532 2.122s2.86-0.86 3.532-2.122c7.137-0.503 12.468-2.495 12.468-4.878 0-0.007-0.001-0.014-0.001-0.021l0.048 0.021zM25.82 26.691c-1.695 0.452-3.692 0.777-5.837 0.958-0.178-2.044-1.893-3.648-3.984-3.648s-3.805 1.604-3.984 3.648c-2.144-0.18-4.142-0.506-5.837-0.958-2.332-0.622-3.447-1.318-3.855-1.691 0.408-0.372 1.523-1.068 3.855-1.691 2.712-0.724 6.199-1.122 9.82-1.122s7.109 0.398 9.82 1.122c2.332 0.622 3.447 1.318 3.855 1.691-0.408 0.372-1.523 1.068-3.855 1.691z"></path>
</symbol>
<symbol id="icon-display" viewBox="0 0 32 32">
<title>display</title>
<path d="M0 2v20h32v-20h-32zM30 20h-28v-16h28v16zM21 24h-10l-1 4-2 2h16l-2-2z"></path>
</symbol>
<symbol id="icon-mobile" viewBox="0 0 32 32">
<title>mobile</title>
<path d="M23 0h-14c-1.65 0-3 1.35-3 3v26c0 1.65 1.35 3 3 3h14c1.65 0 3-1.35 3-3v-26c0-1.65-1.35-3-3-3zM12 1.5h8v1h-8v-1zM16 30c-1.105 0-2-0.895-2-2s0.895-2 2-2 2 0.895 2 2-0.895 2-2 2zM24 24h-16v-20h16v20z"></path>
</symbol>
<symbol id="icon-tablet" viewBox="0 0 32 32">
<title>tablet</title>
<path d="M25 0h-20c-1.65 0-3 1.35-3 3v26c0 1.65 1.35 3 3 3h20c1.65 0 3-1.35 3-3v-26c0-1.65-1.35-3-3-3zM15 31c-0.552 0-1-0.448-1-1s0.448-1 1-1 1 0.448 1 1-0.448 1-1 1zM24 28h-18v-24h18v24z"></path>
</symbol>
</defs>
</svg>
